<svg xmlns="http://www.w3.org/2000/svg" viewBox="0 0 294.842 294.842">
  <path d="M292.128 214.846a5.997 5.997 0 00-8.484 0l-59.512 59.511V6a6 6 0 00-12 0v268.356l-59.513-59.512a6 6 0 00-8.484 8.486l69.755 69.754c1.171 1.171 2.707 1.757 4.242 1.757s3.071-.586 4.242-1.758l69.754-69.754a5.996 5.996 0 000-8.483zM6.956 12h180.137a6 6 0 000-12H6.956a6 6 0 000 12z"/>
  <path d="M6.956 82.228h180.137a6 6 0 000-12H6.956a6 6 0 000 12zM6.956 152.456h180.137a6 6 0 000-12H6.956a6 6 0 000 12zM124.438 210.685H6.956a6 6 0 000 12h117.482a6 6 0 000-12zM124.438 280.912H6.956a6 6 0 000 12h117.482a6 6 0 000-12z"/>
</svg>
